<?xml version="1.0" encoding="UTF-8"?>
<svg version="1.1" xmlns="http://www.w3.org/2000/svg" width="90" height="103">
<path d="M0 0 C11.00702133 -1.20389296 19.82483287 3.71580144 29.3125 8.76171875 C31.93787592 10.2831661 31.93787592 10.2831661 34.75 9.5 C39.8825487 7.13113137 44.91387497 4.56775151 49.953125 2.0078125 C54.10858391 0.04239274 57.43316676 -0.43083332 62 0 C64.4375 1 64.4375 1 66 2 C65.91796875 3.77734375 65.91796875 3.77734375 65 6 C62.76252656 7.37804655 60.68730276 8.48524492 58.3125 9.5625 C57.39307617 9.99852539 57.39307617 9.99852539 56.45507812 10.44335938 C54.64046488 11.30352069 52.82026138 12.15185659 51 13 C48.9968412 13.9936573 46.99568977 14.9914256 45 16 C53.01588538 19.80580297 61.07802969 23.33999325 69.34936523 26.55102539 C75.62147142 29.05183139 75.62147142 29.05183139 78 32 C78.1875 35.1875 78.1875 35.1875 78 38 C74.40517705 39.79741148 70.87102993 39.56419869 67 39 C63.11934766 37.67428526 59.3769858 36.1438275 55.609375 34.53125 C51.45871555 32.77036417 47.29537176 31.36020106 43 30 C39.63355388 28.87785129 37.75134051 27.20107241 35 25 C32.0751102 23.71132345 32.0751102 23.71132345 29.375 24.75 C26.67505919 25.82111379 26.67505919 25.82111379 26 29 C23 30 23 30 21 30 C19.15013526 30.90444336 17.31966328 31.84873504 15.5 32.8125 C6.79621532 37.20593785 -1.12572028 40.03729807 -11 39 C-11.33 38.67 -11.66 38.34 -12 38 C-12 35.69 -12 33.38 -12 31 C-7.05 28.36 -2.1 25.72 3 23 C3 22.34 3 21.68 3 21 C9.625 19 9.625 19 13 19 C14.68236471 18.37400383 16.3523962 17.71247732 18 17 C15.66785852 15.79371992 13.50357861 14.8345262 11 14 C10.67 13.34 10.34 12.68 10 12 C7.13073269 10.36041868 4.07584082 9.19616032 1 8 C0.67 5.36 0.34 2.72 0 0 Z " fill="#DC4B39" transform="translate(12,61)"/>
<path d="M0 0 C9.20378474 1.15694855 9.20378474 1.15694855 12.125 4.25 C13.10098824 7.3173916 13.22327233 9.79976334 13 13 C12.34 13 11.68 13 11 13 C10.67 13.99 10.34 14.98 10 16 C7.59454362 17.20272819 6.05003047 17.10071472 3.375 17.0625 C2.14910156 17.04896484 2.14910156 17.04896484 0.8984375 17.03515625 C0.27195312 17.02355469 -0.35453125 17.01195313 -1 17 C-0.67 17.99 -0.34 18.98 0 20 C0.66 20 1.32 20 2 20 C2.38218767 21.65614657 2.71395102 23.32457024 3 25 C2.67 25.33 2.34 25.66 2 26 C2.33 26.66 2.66 27.32 3 28 C1.72511435 32.33086155 -0.39224925 36.04117957 -4.1875 38.5625 C-8.55415916 40.63386396 -12.46690995 40.56260101 -17 39 C-20.37730658 37.14865254 -22.82647857 35.19703152 -25 32 C-25.82271244 28.51682784 -25.85595616 25.47623012 -25 22 C-23.45703125 19.69921875 -23.45703125 19.69921875 -22 18 C-22.99 17.34 -23.98 16.68 -25 16 C-21.7 15.34 -18.4 14.68 -15 14 C-14.67 13.01 -14.34 12.02 -14 11 C-12.35 11 -10.7 11 -9 11 C-8.67 9.35 -8.34 7.7 -8 6 C-7.34 6 -6.68 6 -6 6 C-5.34 4.68 -4.68 3.36 -4 2 C-2.68 2 -1.36 2 0 2 C0 1.34 0 0.68 0 0 Z M-12 13 C-12 13.33 -12 13.66 -12 14 C-10.35 14 -8.7 14 -7 14 C-7 13.67 -7 13.34 -7 13 C-8.65 13 -10.3 13 -12 13 Z " fill="#F5793E" transform="translate(56,25)"/>
<path d="M0 0 C1.14144924 2.2013664 2.14982023 4.37895705 3.0625 6.6875 C3.79447966 8.92435966 3.79447966 8.92435966 5 10 C5.47407407 17.22962963 5.47407407 17.22962963 3.5 20.4375 C3.005 20.953125 2.51 21.46875 2 22 C2 22.33 2 22.66 2 23 C0.25360243 23.39143394 -1.49735918 23.76254287 -3.25 24.125 C-4.22453125 24.33382812 -5.1990625 24.54265625 -6.203125 24.7578125 C-9.23442766 25.0202996 -10.48017346 24.61988849 -13 23 C-12.34 22.67 -11.68 22.34 -11 22 C-11.45375 21.5875 -11.9075 21.175 -12.375 20.75 C-15.25578197 17.64761942 -15.98414102 15.87224405 -16.0625 11.5625 C-14.82562518 7.41533147 -13.62213515 6.07299375 -10.0546875 3.80078125 C-6.46567768 2.40202267 -3.69784261 3.15663239 0 4 C0 2.68 0 1.36 0 0 Z " fill="#F6793D" transform="translate(39,16)"/>
<path d="M0 0 C3.10429856 0.49668777 5.11774653 0.29603768 8.125 -0.5 C7.609375 -0.108125 7.09375 0.28375 6.5625 0.6875 C6.088125 1.285625 5.61375 1.88375 5.125 2.5 C5.29 3.28375 5.455 4.0675 5.625 4.875 C6.125 7.5 6.125 7.5 4.8125 10.25 C3.125 12.5 3.125 12.5 1.125 13.5 C-4.41346154 13.73076923 -4.41346154 13.73076923 -6.875 12.5 C-6.875 11.84 -6.875 11.18 -6.875 10.5 C-7.535 10.5 -8.195 10.5 -8.875 10.5 C-9.1003459 7.19492676 -9.22000438 5.10786486 -7.5625 2.1875 C-5.04860378 -0.32639622 -3.46965106 -0.60341757 0 0 Z " fill="#F67B3D" transform="translate(49.875,11.5)"/>
<path d="M0 0 C1.670625 0.061875 1.670625 0.061875 3.375 0.125 C3.375 3.095 3.375 6.065 3.375 9.125 C0.625 9.8125 0.625 9.8125 -2.625 10.125 C-5 8.6875 -5 8.6875 -6.625 7.125 C-5.84042384 2.15601765 -5.49387562 0.18944399 0 0 Z " fill="#F67D3D" transform="translate(57.625,-0.125)"/>
<path d="M0 0 C2.4375 0.375 2.4375 0.375 5 1 C5.33 1.66 5.66 2.32 6 3 C5.34 3.66 4.68 4.32 4 5 C4 4.01 4 3.02 4 2 C3.01 2 2.02 2 1 2 C1 3.98 1 5.96 1 8 C0.67 8 0.34 8 0 8 C0 5.36 0 2.72 0 0 Z " fill="#F58514" transform="translate(45,26)"/>
<path d="M0 0 C3.63 0.66 7.26 1.32 11 2 C11 2.33 11 2.66 11 3 C5.04296875 3.29296875 5.04296875 3.29296875 3 3 C2.01 2.01 1.02 1.02 0 0 Z " fill="#EA6D34" transform="translate(37,64)"/>
<path d="M0 0 C0.99 0.99 1.98 1.98 3 3 C2.01 3.495 2.01 3.495 1 4 C-1.625 3.0625 -1.625 3.0625 -4 2 C-3.34 1.67 -2.68 1.34 -2 1 C-1.34 1.33 -0.68 1.66 0 2 C0 1.34 0 0.68 0 0 Z " fill="#F07127" transform="translate(51,8)"/>
<path d="M0 0 C3.63 0 7.26 0 11 0 C11 0.33 11 0.66 11 1 C7.37 1 3.74 1 0 1 C0 0.67 0 0.34 0 0 Z " fill="#F32E0B" transform="translate(1,101)"/>
<path d="M0 0 C0.33 0 0.66 0 1 0 C1 3.3 1 6.6 1 10 C0.67 10 0.34 10 0 10 C0 6.7 0 3.4 0 0 Z " fill="#FFB200" transform="translate(29,47)"/>
<path d="M0 0 C2.875 -0.125 2.875 -0.125 6 0 C6.66 0.66 7.32 1.32 8 2 C5.125 2.125 5.125 2.125 2 2 C1.34 1.34 0.68 0.68 0 0 Z " fill="#FF7D3C" transform="translate(56,23)"/>
<path d="M0 0 C4.75 0.75 4.75 0.75 7 3 C2.25 2.25 2.25 2.25 0 0 Z " fill="#F24919" transform="translate(68,97)"/>
<path d="M0 0 C2.31 0.66 4.62 1.32 7 2 C4 3 4 3 1.8125 2.0625 C1.214375 1.711875 0.61625 1.36125 0 1 C0 0.67 0 0.34 0 0 Z " fill="#E44426" transform="translate(57,92)"/>
<path d="M0 0 C2.97 0 5.94 0 9 0 C9 0.33 9 0.66 9 1 C6.03 1 3.06 1 0 1 C0 0.67 0 0.34 0 0 Z " fill="#C60000" transform="translate(66,59)"/>
<path d="M0 0 C0.99 0.495 0.99 0.495 2 1 C2 3.31 2 5.62 2 8 C1.67 8 1.34 8 1 8 C0.67 5.36 0.34 2.72 0 0 Z " fill="#F54F44" transform="translate(69,30)"/>
<path d="M0 0 C1.98 0.66 3.96 1.32 6 2 C5.01 2.33 4.02 2.66 3 3 C2.01 2.01 1.02 1.02 0 0 Z " fill="#DF3530" transform="translate(67,80)"/>
<path d="M0 0 C0.66 0.33 1.32 0.66 2 1 C1.01 1.66 0.02 2.32 -1 3 C-1.99 2.67 -2.98 2.34 -4 2 C-2.125 0.9375 -2.125 0.9375 0 0 Z " fill="#E44232" transform="translate(64,60)"/>
<path d="M0 0 C0.99 1.32 1.98 2.64 3 4 C2.67 4.66 2.34 5.32 2 6 C0 3 0 3 0 0 Z " fill="#F58028" transform="translate(22,31)"/>
<path d="M0 0 C1.98 0 3.96 0 6 0 C4.02 0.99 4.02 0.99 2 2 C1.34 1.34 0.68 0.68 0 0 Z " fill="#BC0C0C" transform="translate(83,101)"/>
<path d="M0 0 C2.125 0.375 2.125 0.375 4 1 C2.02 1.33 0.04 1.66 -2 2 C-1.34 1.34 -0.68 0.68 0 0 Z " fill="#EE3E2B" transform="translate(14,99)"/>
<path d="M0 0 C0.66 0.33 1.32 0.66 2 1 C0.35 1.66 -1.3 2.32 -3 3 C-2.01 2.01 -1.02 1.02 0 0 Z " fill="#DA2D2D" transform="translate(74,69)"/>
<path d="M0 0 C2.475 0.495 2.475 0.495 5 1 C3.68 1.33 2.36 1.66 1 2 C0.67 1.34 0.34 0.68 0 0 Z " fill="#D66226" transform="translate(58,76)"/>
<path d="M0 0 C2.475 0.495 2.475 0.495 5 1 C4.01 1.33 3.02 1.66 2 2 C1.34 1.34 0.68 0.68 0 0 Z " fill="#E9342C" transform="translate(27,62)"/>
<path d="M0 0 C1.32 0.33 2.64 0.66 4 1 C3.01 1.495 3.01 1.495 2 2 C1.34 1.34 0.68 0.68 0 0 Z " fill="#DF554C" transform="translate(64,95)"/>
<path d="M0 0 C0.66 0.33 1.32 0.66 2 1 C0.68 1.33 -0.64 1.66 -2 2 C-1.34 1.34 -0.68 0.68 0 0 Z " fill="#F73930" transform="translate(26,94)"/>
<path d="M0 0 C1.65 0 3.3 0 5 0 C5 0.33 5 0.66 5 1 C3.35 1 1.7 1 0 1 C0 0.67 0 0.34 0 0 Z " fill="#EE6E3B" transform="translate(41,86)"/>
<path d="M0 0 C1.98 0.99 1.98 0.99 4 2 C2.68 1.67 1.36 1.34 0 1 C0 0.67 0 0.34 0 0 Z " fill="#F04840" transform="translate(63,78)"/>
<path d="M0 0 C1.98 0.99 1.98 0.99 4 2 C2.68 1.67 1.36 1.34 0 1 C0 0.67 0 0.34 0 0 Z " fill="#CA3B33" transform="translate(38,67)"/>
<path d="M0 0 C1.32 0.33 2.64 0.66 4 1 C3.01 1.495 3.01 1.495 2 2 C1.34 1.34 0.68 0.68 0 0 Z " fill="#B25D2A" transform="translate(23,60)"/>
<path d="M0 0 C0.99 0.495 0.99 0.495 2 1 C1.01 2.485 1.01 2.485 0 4 C0 2.68 0 1.36 0 0 Z " fill="#CC5E25" transform="translate(22,23)"/>
<path d="M0 0 C0.66 0.33 1.32 0.66 2 1 C1.01 1 0.02 1 -1 1 C-0.67 0.67 -0.34 0.34 0 0 Z " fill="#FF1515" transform="translate(39,87)"/>
<path d="M0 0 C0.66 0.33 1.32 0.66 2 1 C1.01 1 0.02 1 -1 1 C-0.67 0.67 -0.34 0.34 0 0 Z " fill="#F62B1F" transform="translate(13,83)"/>
<path d="M0 0 C1 4 1 4 1 4 Z " fill="#C4251A" transform="translate(10,62)"/>
<path d="M0 0 C0.99 0.33 1.98 0.66 3 1 C2.01 1 1.02 1 0 1 C0 0.67 0 0.34 0 0 Z " fill="#FFDA12" transform="translate(34,62)"/>
<path d="M0 0 C0.99 0.33 1.98 0.66 3 1 C2.01 1 1.02 1 0 1 C0 0.67 0 0.34 0 0 Z " fill="#BF2A2A" transform="translate(75,60)"/>
<path d="M0 0 C4 1 4 1 4 1 Z " fill="#FF2000" transform="translate(19,59)"/>
<path d="M0 0 C4 1 4 1 4 1 Z " fill="#BF2000" transform="translate(13,59)"/>
<path d="M0 0 C1 4 1 4 1 4 Z " fill="#F27339" transform="translate(21,27)"/>
<path d="M0 0 C0 3 0 3 0 3 Z " fill="#FF991C" transform="translate(56,20)"/>
<path d="M0 0 C1 4 1 4 1 4 Z " fill="#FF9455" transform="translate(49,3)"/>
<path d="M0 0 C3 1 3 1 3 1 Z " fill="#FF5555" transform="translate(78,101)"/>
<path d="M0 0 C3 1 3 1 3 1 Z " fill="#D43838" transform="translate(75,100)"/>
<path d="M0 0 C3 1 3 1 3 1 Z " fill="#FF692D" transform="translate(18,98)"/>
<path d="M0 0 C3 1 3 1 3 1 Z " fill="#FF2A2A" transform="translate(82,87)"/>
<path d="M0 0 C3 1 3 1 3 1 Z " fill="#E93131" transform="translate(77,85)"/>
<path d="M0 0 C3 1 3 1 3 1 Z " fill="#F15C4E" transform="translate(24,78)"/>
<path d="M0 0 C3 1 3 1 3 1 Z " fill="#D54234" transform="translate(27,77)"/>
<path d="M0 0 C3 1 3 1 3 1 Z " fill="#FF0000" transform="translate(66,73)"/>
<path d="M0 0 C3 1 3 1 3 1 Z " fill="#FF0000" transform="translate(60,43)"/>
<path d="M0 0 C3 1 3 1 3 1 Z " fill="#F1771F" transform="translate(52,25)"/>
<path d="M0 0 C3 1 3 1 3 1 Z " fill="#FF6B2D" transform="translate(44,10)"/>
<path d="" fill="#FF2A2A" transform="translate(0,0)"/>
<path d="M0 0 C2 1 2 1 2 1 Z " fill="#FF0000" transform="translate(81,102)"/>
<path d="M0 0 C2 1 2 1 2 1 Z " fill="#FF6A2A" transform="translate(21,97)"/>
<path d="M0 0 C2 1 2 1 2 1 Z " fill="#FF5D44" transform="translate(30,93)"/>
<path d="M0 0 C2 1 2 1 2 1 Z " fill="#ED2424" transform="translate(55,91)"/>
<path d="M0 0 C2 1 2 1 2 1 Z " fill="#EA2A15" transform="translate(33,91)"/>
<path d="M0 0 C2 1 2 1 2 1 Z " fill="#BF0000" transform="translate(50,89)"/>
<path d="M0 0 C2 1 2 1 2 1 Z " fill="#FF4000" transform="translate(48,88)"/>
<path d="M0 0 C2 1 2 1 2 1 Z " fill="#FF0000" transform="translate(2,88)"/>
<path d="M0 0 C2 1 2 1 2 1 Z " fill="#D42A2A" transform="translate(46,87)"/>
<path d="M0 0 C2 1 2 1 2 1 Z " fill="#FF0000" transform="translate(4,87)"/>
<path d="M0 0 C2 1 2 1 2 1 Z " fill="#D42A2A" transform="translate(80,86)"/>
<path d="M0 0 C2 1 2 1 2 1 Z " fill="#FF6A2A" transform="translate(8,86)"/>
<path d="M0 0 C2 1 2 1 2 1 Z " fill="#A61919" transform="translate(10,85)"/>
<path d="M0 0 C2 1 2 1 2 1 Z " fill="#C44A4A" transform="translate(75,84)"/>
<path d="M0 0 C2 1 2 1 2 1 Z " fill="#EF4A4A" transform="translate(73,83)"/>
<path d="M0 0 C2 1 2 1 2 1 Z " fill="#CA4A35" transform="translate(22,79)"/>
<path d="M0 0 C2 1 2 1 2 1 Z " fill="#DF2020" transform="translate(61,75)"/>
<path d="M0 0 C2 1 2 1 2 1 Z " fill="#FF4040" transform="translate(63,74)"/>
<path d="M0 0 C2 1 2 1 2 1 Z " fill="#FF4000" transform="translate(69,72)"/>
<path d="M0 0 C2 1 2 1 2 1 Z " fill="#FF0000" transform="translate(15,71)"/>
<path d="M0 0 C2 1 2 1 2 1 Z " fill="#BF5540" transform="translate(44,70)"/>
<path d="M0 0 C2 1 2 1 2 1 Z " fill="#D33E3E" transform="translate(46,69)"/>
<path d="M0 0 C2 1 2 1 2 1 Z " fill="#CA4A35" transform="translate(42,69)"/>
<path d="M0 0 C2 1 2 1 2 1 Z " fill="#BF2A2A" transform="translate(48,68)"/>
<path d="M0 0 C2 1 2 1 2 1 Z " fill="#DA4A35" transform="translate(50,67)"/>
<path d="M0 0 C2 1 2 1 2 1 Z " fill="#F15547" transform="translate(52,66)"/>
<path d="M0 0 C2 1 2 1 2 1 Z " fill="#D75D36" transform="translate(36,66)"/>
<path d="" fill="#E55339" transform="translate(0,0)"/>
<path d="M0 0 C2 1 2 1 2 1 Z " fill="#DF4A35" transform="translate(54,65)"/>
<path d="M0 0 C2 1 2 1 2 1 Z " fill="#FF8944" transform="translate(48,65)"/>
<path d="M0 0 C2 1 2 1 2 1 Z " fill="#EF4040" transform="translate(34,65)"/>
<path d="M0 0 C2 1 2 1 2 1 Z " fill="#ED4444" transform="translate(56,64)"/>
<path d="M0 0 C2 1 2 1 2 1 Z " fill="#ED763A" transform="translate(50,64)"/>
<path d="M0 0 C2 1 2 1 2 1 Z " fill="#C24F4F" transform="translate(32,64)"/>
<path d="M0 0 C2 1 2 1 2 1 Z " fill="#DF4A4A" transform="translate(58,63)"/>
<path d="M0 0 C2 1 2 1 2 1 Z " fill="#FF8040" transform="translate(52,63)"/>
<path d="" fill="#FF8040" transform="translate(0,0)"/>
<path d="M0 0 C2 1 2 1 2 1 Z " fill="#FF0000" transform="translate(17,58)"/>
<path d="" fill="#FFFF00" transform="translate(0,0)"/>
<path d="" fill="#FF0000" transform="translate(0,0)"/>
<path d="" fill="#FF7F00" transform="translate(0,0)"/>
<path d="M0 0 C2 1 2 1 2 1 Z " fill="#FF4040" transform="translate(58,44)"/>
<path d="" fill="#E57344" transform="translate(0,0)"/>
<path d="M0 0 C2 1 2 1 2 1 Z " fill="#FF6A4A" transform="translate(50,26)"/>
<path d="M0 0 C2 1 2 1 2 1 Z " fill="#FF8924" transform="translate(64,25)"/>
<path d="" fill="#FF7F00" transform="translate(0,0)"/>
<path d="M0 0 C2 1 2 1 2 1 Z " fill="#FF7319" transform="translate(27,19)"/>
<path d="M0 0 C2 1 2 1 2 1 Z " fill="#FF4000" transform="translate(36,18)"/>
<path d="M0 0 C2 1 2 1 2 1 Z " fill="#DF6A4A" transform="translate(29,18)"/>
<path d="M0 0 C2 1 2 1 2 1 Z " fill="#FF8015" transform="translate(58,10)"/>
<path d="" fill="#FF0000" transform="translate(0,0)"/>
<path d="" fill="#FF7319" transform="translate(0,0)"/>
<path d="" fill="#FF8000" transform="translate(0,0)"/>
<path d="" fill="#FF8000" transform="translate(0,0)"/>
<path d="" fill="#DB4949" transform="translate(0,0)"/>
<path d="" fill="#800000" transform="translate(0,0)"/>
<path d="" fill="#FF5555" transform="translate(0,0)"/>
<path d="" fill="#BF4040" transform="translate(0,0)"/>
<path d="" fill="#FF4040" transform="translate(0,0)"/>
<path d="" fill="#FF8000" transform="translate(0,0)"/>
<path d="" fill="#FF8080" transform="translate(0,0)"/>
<path d="" fill="#FF8080" transform="translate(0,0)"/>
<path d="" fill="#FF0000" transform="translate(0,0)"/>
<path d="" fill="#FF0000" transform="translate(0,0)"/>
<path d="" fill="#800000" transform="translate(0,0)"/>
<path d="" fill="#000000" transform="translate(0,0)"/>
<path d="" fill="#FF0000" transform="translate(0,0)"/>
<path d="" fill="#FF0000" transform="translate(0,0)"/>
<path d="" fill="#D5552B" transform="translate(0,0)"/>
<path d="" fill="#FF6633" transform="translate(0,0)"/>
<path d="" fill="#D5552B" transform="translate(0,0)"/>
<path d="" fill="#FF5555" transform="translate(0,0)"/>
<path d="" fill="#FF4040" transform="translate(0,0)"/>
<path d="" fill="#FF6633" transform="translate(0,0)"/>
<path d="" fill="#FF8080" transform="translate(0,0)"/>
<path d="" fill="#FF8000" transform="translate(0,0)"/>
<path d="" fill="#FF5555" transform="translate(0,0)"/>
<path d="" fill="#FF8080" transform="translate(0,0)"/>
<path d="" fill="#FF8040" transform="translate(0,0)"/>
<path d="" fill="#FFFF00" transform="translate(0,0)"/>
<path d="" fill="#FFFF00" transform="translate(0,0)"/>
<path d="" fill="#FF8000" transform="translate(0,0)"/>
<path d="" fill="#FF8000" transform="translate(0,0)"/>
<path d="" fill="#FF8080" transform="translate(0,0)"/>
<path d="" fill="#FF0000" transform="translate(0,0)"/>
<path d="" fill="#FF0000" transform="translate(0,0)"/>
<path d="" fill="#FF8080" transform="translate(0,0)"/>
<path d="" fill="#FFFF00" transform="translate(0,0)"/>
<path d="" fill="#FF8000" transform="translate(0,0)"/>
<path d="" fill="#FFFF00" transform="translate(0,0)"/>
<path d="" fill="#FF8040" transform="translate(0,0)"/>
<path d="" fill="#FF0000" transform="translate(0,0)"/>
<path d="" fill="#FFAA55" transform="translate(0,0)"/>
<path d="" fill="#AA5555" transform="translate(0,0)"/>
<path d="" fill="#FF8000" transform="translate(0,0)"/>
<path d="" fill="#FF5555" transform="translate(0,0)"/>
<path d="" fill="#FF7139" transform="translate(0,0)"/>
<path d="" fill="#FF6633" transform="translate(0,0)"/>
<path d="" fill="#FF0000" transform="translate(0,0)"/>
<path d="" fill="#FF8000" transform="translate(0,0)"/>
<path d="" fill="#FF0000" transform="translate(0,0)"/>
<path d="" fill="#FF5555" transform="translate(0,0)"/>
<path d="" fill="#FF8080" transform="translate(0,0)"/>
<path d="" fill="#FF6633" transform="translate(0,0)"/>
<path d="" fill="#FF8040" transform="translate(0,0)"/>
<path d="" fill="#FF8040" transform="translate(0,0)"/>
<path d="" fill="#E37139" transform="translate(0,0)"/>
</svg>
